<svg width="131" height="33" viewBox="0 0 131 33" fill="none" xmlns="http://www.w3.org/2000/svg">
<path fill-rule="evenodd" clip-rule="evenodd" d="M7.47093 13.8823C7.54372 13.9788 7.53526 14.1142 7.44892 14.1988V14.1955C7.36936 14.2733 7.24916 14.2869 7.15436 14.231C6.73284 13.9805 6.27747 13.6808 5.84748 13.3795C3.59937 11.5817 1.43759 9.40805 0.514979 7.17348L0.51159 7.1701C-1.97522 1.14352 5.09077 0.154891 11.2121 0.104105C20.2605 0.0296191 19.8593 2.62985 19.4716 4.23976C19.3142 4.8932 18.9079 5.72101 18.5507 6.36768C18.4136 6.61653 18.0378 6.51834 18.0361 6.23564C18.0191 4.28885 17.0441 0.679677 9.91881 1.21293C3.86346 1.66661 2.75801 7.58823 7.47093 13.8823ZM39.3442 3.24428C38.816 3.47281 38.3556 3.7843 37.9595 4.17873C37.5633 4.57317 37.2519 5.03532 37.025 5.56349C36.7965 6.09166 36.6831 6.65369 36.6831 7.25466C36.6831 7.85562 36.7965 8.41765 37.025 8.94582C37.2535 9.47399 37.565 9.93445 37.9595 10.3306C38.3539 10.7267 38.816 11.0382 39.3442 11.265C39.8724 11.4936 40.4344 11.607 41.0354 11.607C41.8513 11.607 42.5843 11.4089 43.2378 11.0128C43.8912 10.6167 44.4092 10.0902 44.7935 9.42998H41.0354V7.03797H47.7611C47.7611 7.07352 47.7645 7.11076 47.7696 7.14631C47.7747 7.18186 47.778 7.21742 47.778 7.25466C47.778 8.18912 47.602 9.06432 47.2482 9.88028C46.8944 10.6962 46.4119 11.4089 45.8008 12.0201C45.1897 12.6312 44.4753 13.1136 43.661 13.4674C42.845 13.8213 41.9698 13.9973 41.0354 13.9973C40.1009 13.9973 39.2257 13.8213 38.4098 13.4674C37.5938 13.1136 36.8811 12.6312 36.27 12.0201C35.6589 11.4089 35.1764 10.6945 34.8226 9.88028C34.4688 9.06432 34.2927 8.18912 34.2927 7.25466C34.2927 6.3202 34.4705 5.44499 34.8226 4.62903C35.1764 3.81308 35.6589 3.10038 36.27 2.48926C36.8811 1.87814 37.5955 1.39568 38.4098 1.04187C39.2257 0.688061 40.1009 0.512004 41.0354 0.512004C41.7193 0.512004 42.3727 0.61019 42.9957 0.808254C43.6187 1.00632 44.1976 1.27887 44.7309 1.6259C45.2641 1.97294 45.7381 2.39108 46.1512 2.87523C46.5643 3.36108 46.9028 3.89772 47.1669 4.48514L45.0813 5.69046C44.9256 5.28248 44.7157 4.90836 44.4516 4.5664C44.1875 4.22444 43.8794 3.93158 43.5256 3.68442C43.1718 3.43896 42.7858 3.24597 42.366 3.10885C41.9461 2.97173 41.5026 2.90232 41.0354 2.90232C40.4361 2.90232 39.8724 3.01574 39.3442 3.24428ZM49.2948 7.30883C49.5471 6.72141 49.8907 6.20847 50.3292 5.77171C50.7676 5.33495 51.2772 4.98961 51.8578 4.73738C52.4385 4.48514 53.0665 4.35987 53.7369 4.35987C54.4073 4.35987 55.0201 4.48514 55.6075 4.73738C56.1949 4.98961 56.7079 5.33326 57.1446 5.77171C57.5814 6.21016 57.9267 6.72141 58.179 7.30883C58.4312 7.89625 58.5565 8.51922 58.5565 9.17943C58.5565 9.35888 58.5446 9.53324 58.5209 9.70083C58.4972 9.86843 58.4667 10.036 58.4312 10.2053H51.526C51.7292 10.6251 52.0237 10.9637 52.408 11.221C52.7923 11.4783 53.2358 11.607 53.7386 11.607C54.3023 11.607 54.8 11.4394 55.2317 11.1042H58.1451C57.9657 11.5359 57.7253 11.9286 57.4256 12.2824C57.126 12.6363 56.7874 12.9393 56.4099 13.1898C56.0324 13.4421 55.616 13.6401 55.1606 13.784C54.7052 13.9279 54.2312 13.999 53.7403 13.999C53.0682 13.999 52.4419 13.8737 51.8612 13.6215C51.2806 13.3693 50.771 13.0256 50.3326 12.5872C49.8941 12.1487 49.5505 11.6408 49.2982 11.0585C49.046 10.4779 48.9207 9.84981 48.9207 9.17943C48.9207 8.50906 49.046 7.89625 49.2982 7.30883H49.2948ZM52.3978 7.14631C52.0085 7.4104 51.7173 7.75236 51.526 8.17049H55.9495C55.7582 7.75066 55.467 7.4087 55.0776 7.14631C54.6883 6.88223 54.2414 6.75018 53.7386 6.75018C53.2358 6.75018 52.7889 6.88223 52.3995 7.14631H52.3978ZM66.0948 7.32745C66.2082 7.50689 66.2894 7.71681 66.3368 7.95719H66.3385C66.3859 8.19758 66.4096 8.45489 66.4096 8.73083V14.0007H68.8016V8.73083C68.8016 8.13156 68.717 7.56445 68.5494 7.0312C68.3818 6.49795 68.133 6.03411 67.8029 5.63798C67.4727 5.24354 67.0715 4.93205 66.5975 4.70352C66.1252 4.47498 65.5818 4.36156 64.9707 4.36156C64.4561 4.36156 63.9905 4.50715 63.5775 4.8017C63.1644 5.09626 62.7886 5.43991 62.4534 5.83604V4.36156H60.0614V14.0007H62.4534V8.98307C62.4534 8.64619 62.5313 8.34147 62.687 8.06554C62.8428 7.7896 63.0442 7.5526 63.2897 7.35454C63.5352 7.15647 63.8077 7.00581 64.1074 6.90423C64.407 6.80266 64.7083 6.75188 64.9707 6.75188C65.2331 6.75188 65.4582 6.80266 65.6445 6.90423C65.8307 7.0075 65.9813 7.14801 66.0948 7.32745ZM70.6807 7.30883C70.9329 6.72141 71.2766 6.20847 71.715 5.77171C72.1535 5.33495 72.663 4.98961 73.2437 4.73738C73.8244 4.48514 74.4524 4.35987 75.1228 4.35987C75.7931 4.35987 76.406 4.48514 76.9934 4.73738C77.5808 4.98961 78.0937 5.33326 78.5305 5.77171C78.9673 6.21016 79.3126 6.72141 79.5648 7.30883C79.8171 7.89625 79.9423 8.51922 79.9423 9.17943C79.9423 9.35888 79.9305 9.53324 79.9068 9.70083C79.8831 9.86843 79.8526 10.036 79.8171 10.2053H72.9119C73.1151 10.6251 73.4096 10.9637 73.7939 11.221C74.1782 11.4783 74.6217 11.607 75.1245 11.607C75.6882 11.607 76.1859 11.4394 76.6176 11.1042H79.531C79.3515 11.5359 79.1112 11.9286 78.8115 12.2824C78.5119 12.6363 78.1733 12.9393 77.7958 13.1898C77.4183 13.4421 77.0019 13.6401 76.5465 13.784C76.0911 13.9279 75.6171 13.999 75.1262 13.999C74.4541 13.999 73.8277 13.8737 73.2471 13.6215C72.6664 13.3693 72.1569 13.0256 71.7184 12.5872C71.28 12.1487 70.9363 11.6408 70.6841 11.0585C70.4319 10.4779 70.3066 9.84981 70.3066 9.17943C70.3066 8.50906 70.4319 7.89625 70.6841 7.30883H70.6807ZM73.7837 7.14631C73.3944 7.4104 73.1032 7.75236 72.9119 8.17049H77.3354C77.1441 7.75066 76.8529 7.4087 76.4635 7.14631C76.0742 6.88223 75.6272 6.75018 75.1245 6.75018C74.6217 6.75018 74.1748 6.88223 73.7854 7.14631H73.7837ZM84.1338 5.31295V4.35987H81.7435V13.999H84.1355V9.10664C84.1355 8.69866 84.1897 8.34486 84.2981 8.04522C84.4064 7.74558 84.5503 7.49673 84.7297 7.29867C84.9092 7.1006 85.1123 6.95502 85.3408 6.85853C85.5694 6.76203 85.8081 6.71463 86.0603 6.71463C86.1923 6.71463 86.3481 6.73325 86.5275 6.7688C86.707 6.80436 86.9406 6.88223 87.2284 7.00242V4.53931C86.9524 4.48006 86.7239 4.43774 86.5445 4.41404C86.365 4.39034 86.2025 4.37849 86.0586 4.37849C85.6743 4.37849 85.3188 4.47498 84.9887 4.66628C84.6586 4.85757 84.3742 5.07256 84.1338 5.31295ZM90.4499 13.7383C89.9048 13.5639 89.4376 13.3269 89.0465 13.0273C88.6555 12.7277 88.3575 12.3806 88.1476 11.9845C87.9377 11.5884 87.8328 11.1685 87.8328 10.725C87.8328 10.2815 87.9377 9.85827 88.1476 9.45706C88.3575 9.05585 88.6572 8.70543 89.0465 8.4041C89.4359 8.10277 89.9031 7.86747 90.4499 7.6931C90.995 7.51874 91.6044 7.4324 92.2748 7.4324H94.0557C93.9829 7.27666 93.9033 7.12092 93.8136 6.96517C93.7239 6.80943 93.6105 6.674 93.4717 6.56058C93.3345 6.44716 93.1686 6.35405 92.9773 6.28126C92.7861 6.21016 92.5525 6.17292 92.2765 6.17292C92.0361 6.17292 91.8127 6.19154 91.6027 6.22709C91.3928 6.26264 91.1863 6.32358 90.9815 6.40653C90.7783 6.49117 90.5701 6.60121 90.3602 6.74002C90.1503 6.87715 89.9201 7.0549 89.6678 7.26989L88.498 5.84958C88.7503 5.62104 89.0381 5.41452 89.3614 5.22999C89.6847 5.04378 90.0149 4.88804 90.35 4.76277C90.6852 4.63749 91.0221 4.53762 91.3573 4.46652C91.6925 4.39372 91.9989 4.35817 92.2748 4.35817C93.5936 4.35817 94.6364 4.63749 95.4049 5.19444C96.1735 5.75139 96.556 6.59444 96.556 7.72188V11.7864C96.556 11.9303 96.5628 12.0895 96.5747 12.2621C96.5865 12.4365 96.6136 12.621 96.6559 12.8191C96.6983 13.0171 96.7693 13.2186 96.8709 13.4217C96.9725 13.6249 97.113 13.8179 97.2941 13.9973H94.6871C94.5907 13.9008 94.5128 13.7755 94.4535 13.6198C94.3943 13.4641 94.357 13.3506 94.3452 13.2778C94.1302 13.4691 93.8441 13.6367 93.4903 13.7806C93.1365 13.9245 92.7319 13.9956 92.2765 13.9956C91.6045 13.9956 90.9967 13.9093 90.4516 13.7349L90.4499 13.7383ZM93.6697 11.2837C93.9643 11.0687 94.1217 10.7978 94.1454 10.4745V9.64666H92.2748C91.6028 9.64666 91.0915 9.76008 90.7377 9.98862C90.3839 10.2172 90.2078 10.4626 90.2078 10.7267C90.2078 10.9908 90.3839 11.1889 90.7377 11.3564C91.0915 11.524 91.6044 11.6087 92.2748 11.6087C92.9096 11.6087 93.3752 11.5003 93.668 11.2853L93.6697 11.2837ZM99.2799 2.11175V4.35818H98.0204V6.75019H99.2799V10.3103C99.2799 10.9806 99.3577 11.5511 99.5135 12.0184C99.6692 12.4873 99.8842 12.8682 100.16 13.161C100.436 13.4539 100.763 13.6672 101.14 13.7992C101.518 13.9313 101.934 13.9973 102.39 13.9973C102.64 13.9973 102.923 13.9668 103.234 13.9076C103.548 13.8483 103.888 13.7705 104.26 13.674L103.937 11.5884C103.673 11.6493 103.431 11.7035 103.209 11.7509C102.987 11.7983 102.811 11.822 102.679 11.822C102.366 11.822 102.12 11.7136 101.941 11.4987C101.762 11.2837 101.672 10.8875 101.672 10.312V6.75188H103.632V4.35987H101.672V1.41091L99.2799 2.11175ZM106.319 3.40679V0.512004H108.711V3.40679H106.319ZM108.711 4.35987V13.999H106.319V4.35987H108.711ZM111.92 5.77171C111.482 6.20847 111.138 6.72141 110.886 7.30883C110.634 7.89625 110.509 8.50906 110.509 9.17943C110.509 9.84981 110.634 10.4779 110.886 11.0585C111.138 11.6408 111.482 12.1487 111.92 12.5872C112.357 13.0256 112.868 13.3693 113.449 13.6215C114.03 13.8737 114.668 13.999 115.328 13.999C115.988 13.999 116.611 13.8737 117.199 13.6215C117.786 13.3693 118.297 13.0256 118.736 12.5872C119.174 12.1487 119.518 11.6408 119.77 11.0585C120.022 10.4779 120.148 9.83965 120.148 9.17943C120.148 8.51922 120.022 7.89625 119.77 7.30883C119.518 6.72141 119.173 6.21016 118.736 5.77171C118.299 5.33326 117.786 4.98961 117.199 4.73738C116.611 4.48514 116 4.35987 115.328 4.35987C114.656 4.35987 114.03 4.48514 113.449 4.73738C112.868 4.98961 112.357 5.33326 111.92 5.77171ZM113.61 10.8977C113.388 10.6759 113.214 10.4186 113.089 10.124C112.962 9.82949 112.899 9.51631 112.899 9.17943C112.899 8.84256 112.963 8.52938 113.089 8.23482C113.214 7.94026 113.388 7.68295 113.61 7.46118C113.832 7.23942 114.089 7.06506 114.384 6.93978C114.678 6.81282 114.991 6.75018 115.328 6.75018C115.665 6.75018 115.978 6.81451 116.273 6.93978C116.567 7.06506 116.825 7.23942 117.046 7.46118C117.268 7.68295 117.443 7.94026 117.568 8.23482C117.695 8.52938 117.757 8.84256 117.757 9.17943C117.757 9.51631 117.693 9.82949 117.568 10.124C117.443 10.4186 117.268 10.6759 117.046 10.8977C116.825 11.1195 116.567 11.2938 116.273 11.4191C115.978 11.5461 115.665 11.6087 115.328 11.6087C114.991 11.6087 114.678 11.5444 114.384 11.4191C114.089 11.2938 113.832 11.1195 113.61 10.8977ZM127.928 7.95719C127.881 7.71681 127.799 7.50689 127.686 7.32745C127.573 7.14801 127.422 7.0075 127.236 6.90423C127.049 6.80097 126.824 6.75188 126.562 6.75188C126.3 6.75188 125.998 6.80266 125.699 6.90423C125.399 7.00581 125.126 7.15647 124.881 7.35454C124.635 7.5526 124.434 7.7896 124.278 8.06554C124.123 8.34147 124.045 8.64619 124.045 8.98307V14.0007H121.653V4.36156H124.045V5.83604C124.38 5.43991 124.756 5.09626 125.169 4.8017C125.582 4.50715 126.047 4.36156 126.562 4.36156C127.173 4.36156 127.716 4.47498 128.189 4.70352C128.663 4.93205 129.064 5.24354 129.394 5.63798C129.724 6.03241 129.973 6.49795 130.141 7.0312C130.308 7.56445 130.393 8.13156 130.393 8.73083V14.0007H128.001V8.73083C128.001 8.45489 127.977 8.19758 127.928 7.95719ZM38.2066 29.2669V18.2058H35.7604V31.6944H44.6801V29.2669H38.2066ZM48.5754 31.4338C48.0303 31.2594 47.563 31.0224 47.172 30.7227C46.7809 30.4231 46.483 30.0761 46.2731 29.68C46.0632 29.2838 45.9582 28.864 45.9582 28.4205C45.9582 27.9769 46.0632 27.5537 46.2731 27.1525C46.483 26.7513 46.7826 26.4009 47.172 26.0996C47.5614 25.7982 48.0286 25.5629 48.5754 25.3886C49.1205 25.2142 49.7299 25.1279 50.4003 25.1279H52.1812C52.1101 24.9721 52.0288 24.8164 51.9391 24.6606C51.8494 24.5049 51.7343 24.3695 51.5971 24.256C51.46 24.1426 51.2941 24.0495 51.1028 23.9767C50.9115 23.9056 50.6779 23.8684 50.402 23.8684C50.1616 23.8684 49.9381 23.887 49.7282 23.9225C49.5183 23.9581 49.3118 24.019 49.1069 24.102C48.9038 24.1866 48.6956 24.2967 48.4873 24.4355C48.2774 24.5726 48.0472 24.7503 47.795 24.9653L46.6252 23.545C46.8774 23.3165 47.1652 23.11 47.4886 22.9254C47.8119 22.7392 48.142 22.5835 48.4772 22.4582C48.8124 22.3329 49.1493 22.2331 49.4844 22.162C49.8196 22.0892 50.126 22.0536 50.402 22.0536C51.7207 22.0536 52.7635 22.3329 53.5321 22.8899C54.3006 23.4468 54.6832 24.2899 54.6832 25.4173V29.4819C54.6832 29.6258 54.69 29.7849 54.7018 29.9576C54.7137 30.1303 54.7408 30.3165 54.7831 30.5145C54.8254 30.7126 54.8965 30.914 54.9998 31.1172C55.103 31.3203 55.2418 31.5133 55.423 31.6928H52.816C52.7195 31.5963 52.6416 31.471 52.5824 31.3152C52.5231 31.1595 52.4859 31.0461 52.474 30.9733C52.2573 31.1646 51.9729 31.3322 51.6191 31.4761C51.2653 31.62 50.8607 31.6911 50.4053 31.6911C49.7333 31.6911 49.1255 31.6047 48.5804 31.4304L48.5754 31.4338ZM51.7952 28.9791C52.0898 28.7641 52.2472 28.4933 52.2709 28.1699V27.3421H50.4003C49.7282 27.3421 49.217 27.4555 48.8632 27.6841C48.5094 27.9126 48.3316 28.1581 48.3316 28.4222C48.3316 28.6862 48.5094 28.8843 48.8632 29.0519C49.217 29.2195 49.7299 29.3041 50.4003 29.3041C51.0351 29.3041 51.5006 29.1958 51.7935 28.9808L51.7952 28.9791ZM59.3504 23.0981V18.2058H56.9584V31.6944H59.3504V30.6686C59.7567 30.9919 60.2138 31.2441 60.7166 31.4236C61.2194 31.603 61.7594 31.6928 62.3349 31.6928C62.9951 31.6928 63.6181 31.5675 64.2056 31.3152C64.793 31.063 65.3059 30.7194 65.7427 30.2809C66.1811 29.8425 66.5248 29.3346 66.777 28.7523C67.0293 28.1716 67.1545 27.5334 67.1545 26.8732C67.1545 26.213 67.0293 25.59 66.777 25.0026C66.5248 24.4152 66.1811 23.9039 65.7427 23.4655C65.3059 23.027 64.793 22.6834 64.2056 22.4311C63.6181 22.1789 62.9935 22.0536 62.3349 22.0536C61.7594 22.0536 61.221 22.1467 60.7166 22.3329C60.2138 22.5192 59.7584 22.7748 59.3504 23.0981ZM60.0784 28.5914C59.8566 28.3697 59.6822 28.1124 59.557 27.8178C59.43 27.5232 59.3674 27.2101 59.3674 26.8732C59.3674 26.5363 59.4317 26.2231 59.557 25.9286C59.6822 25.634 59.8566 25.3767 60.0784 25.1549C60.3001 24.9332 60.5575 24.7588 60.852 24.6335C61.1466 24.5066 61.4597 24.4439 61.7966 24.4439C62.1335 24.4439 62.4467 24.5083 62.7412 24.6335C63.0358 24.7588 63.2931 24.9332 63.5149 25.1549C63.7366 25.3767 63.911 25.634 64.0363 25.9286C64.1632 26.2231 64.2259 26.5363 64.2259 26.8732C64.2259 27.2101 64.1615 27.5232 64.0363 27.8178C63.911 28.1124 63.7366 28.3697 63.5149 28.5914C63.2931 28.8132 63.0358 28.9876 62.7412 29.1128C62.4467 29.2398 62.1335 29.3024 61.7966 29.3024C61.4597 29.3024 61.1466 29.2381 60.852 29.1128C60.5575 28.9876 60.3001 28.8132 60.0784 28.5914ZM12.9153 18.116C12.8273 18.199 12.8137 18.3327 12.8832 18.4309C17.4031 24.8655 16.1199 30.7498 10.0527 31.0207C2.91561 31.3373 2.04886 27.701 2.09118 25.7542C2.09795 25.4715 1.72554 25.3632 1.58165 25.6069C1.20584 26.2434 0.772452 27.056 0.596395 27.7061C0.159637 29.3041 -0.319438 31.8891 8.7255 32.0889C14.8469 32.2243 21.9383 31.449 19.636 25.3496L19.6326 25.3462C18.7777 23.0846 16.6836 20.8466 14.4897 18.9811C14.0699 18.6662 13.6229 18.3547 13.2099 18.0906C13.1168 18.0314 12.9966 18.0415 12.9153 18.1177V18.116ZM10.1576 18.111C9.11146 18.111 8.43432 17.3407 8.43432 16.1489C8.43432 14.7286 9.32476 14.2242 10.1576 14.2242C10.9905 14.2242 11.881 14.7303 11.881 16.1489C11.881 17.3407 11.2038 18.111 10.1576 18.111ZM3.76202 20.8212C3.76202 22.013 4.43917 22.7832 5.48536 22.7832C6.53154 22.7832 7.2087 22.013 7.2087 20.8212C7.2087 19.4026 6.31824 18.8964 5.48536 18.8964C4.65247 18.8964 3.76202 19.4009 3.76202 20.8212ZM14.7114 13.5572C13.6653 13.5572 12.9881 12.7869 12.9881 11.5951C12.9881 10.1748 13.8786 9.67036 14.7114 9.67036C15.5443 9.67036 16.4348 10.1765 16.4348 11.5951C16.4348 12.7869 15.7576 13.5572 14.7114 13.5572ZM27.3266 0.112487H27.3283C27.5929 0.112487 27.8074 0.326977 27.8074 0.591565V31.6132C27.8074 31.8778 27.5929 32.0923 27.3283 32.0923H27.3266C27.062 32.0923 26.8475 31.8778 26.8475 31.6132V0.591565C26.8475 0.326977 27.062 0.112487 27.3266 0.112487Z" fill="#3C2708"/>
</svg>
